<svg width="24" height="24" viewBox="0 0 24 24" fill="none" xmlns="http://www.w3.org/2000/svg">
    <path
            d="M15.0334 0C16.7745 2.63909 8.79926 4.26761 8.05861 6.46528C7.38062 8.48467 12.7933 10.8313 12.799 10.8313C11.9763 9.99643 11.3818 9.30655 10.5556 8.00543C9.15865 5.80518 18.7982 3.53479 15.0334 0ZM20.7997 3.61098C20.7997 3.61098 14.7191 3.88716 14.408 6.67454C14.2701 7.91566 16.0059 8.57855 16.0549 9.48196C16.0971 10.2199 15.0178 10.8329 15.0178 10.8329C15.0178 10.8329 16.7983 10.6275 17.4102 9.50205C18.0871 8.25408 16.2705 7.34334 16.4733 6.34307C16.667 5.38652 20.7997 3.61098 20.7997 3.61098ZM9.44956 10.8329C9.44956 10.8329 3.2003 10.7705 3.2003 12.0785C3.19916 13.4456 11.3823 13.5412 17.2255 12.7012C17.2255 12.7012 18.5511 12.1548 18.9659 11.8608C15.1373 12.4377 6.62982 12.271 6.62982 11.7704C6.62982 11.3093 9.44956 10.8329 9.44956 10.8329ZM21.8924 10.8681C21.2059 10.8464 20.4545 11.0108 19.8071 11.3586C21.1597 11.1383 22.2997 11.7644 22.2997 12.4869C22.2997 14.1103 19.1996 15.6476 19.1996 15.6476C19.1996 15.6476 24 15.2322 24 12.5623C24 11.4598 23.0366 10.9042 21.8924 10.8681ZM7.23294 13.2403C6.25528 13.2394 4.80045 13.8231 4.80045 14.3837C4.80045 15.5116 12.155 16.3809 17.5994 14.7335L15.7144 13.8413C12.0237 14.7524 5.21836 14.46 7.23294 13.2403ZM8.61499 15.6459C7.27156 15.6459 6.40059 16.3257 6.40059 16.8228C6.40059 18.3622 14.4203 18.4147 17.5994 16.8496L15.5786 15.902C13.2063 16.7206 7.24193 16.8322 8.61499 15.6459ZM2.79303 18.0047C0.877992 17.9595 0 18.6956 0 19.2971C0 22.4941 20.7997 22.341 20.7997 19.0727C20.7997 18.5302 19.9965 18.2721 19.7047 18.1487C21.4026 21.2729 2.48591 21.0587 2.48591 19.215C2.48591 18.795 3.48755 18.3667 4.76261 18.5621C4.76261 18.5621 4.29523 18.1539 3.67878 18.0733C3.36244 18.0323 3.0666 18.0111 2.79303 18.0047ZM24 20.4087C20.699 22.8395 11.6118 24.3151 3.2003 22.8143C11.6517 25.3908 23.9601 23.3923 24 20.4087Z"
            fill="#ffffff"/>
</svg>