<svg width="24" height="24" viewBox="0 0 24 24" fill="none" xmlns="http://www.w3.org/2000/svg">
    <path
            d="M23.157 4.4121C22.481 4.6961 22.367 4.7221 21.484 4.7841C20.834 4.8291 20.727 4.8411 20.272 4.9931C19.522 5.2391 18.877 5.7431 18.252 6.5831C17.956 6.9811 17.003 8.4961 17.003 8.5711C17.003 8.6281 16.353 9.5691 16.088 9.8911C15.514 10.6041 15.008 10.9701 13.948 11.4811C13.178 11.8411 12.724 12.0051 9.846 12.9581C8.773 13.3111 7.713 13.6961 7.479 13.8221C6.627 14.2711 5.964 14.8581 5.276 15.7601C4.273 17.0801 4.304 17.0731 2.234 16.7071C2.00962 16.6799 1.78454 16.6589 1.559 16.6441C0.915 16.5941 0.536 16.6881 0.227 16.9781L0 17.1931L0.177 17.2811C0.271 17.3311 0.53 17.5151 0.738 17.6791C0.953 17.8491 1.199 18.0261 1.288 18.0701C1.376 18.1141 1.458 18.1581 1.471 18.1711C1.483 18.1841 1.382 18.3411 1.243 18.5241C0.808 19.1051 0.65 19.3951 0.669 19.5721C0.688 19.7361 0.701 19.7421 1.099 19.7421C1.616 19.7361 1.925 19.6861 2.36 19.5341C3.01 19.3011 4.418 18.5941 5.144 18.1341C5.92 17.6341 6.861 17.1361 7.1 17.0921C7.182 17.0721 7.454 17.0221 7.694 16.9781C8.274 16.8711 9.158 16.8831 10.281 17.0281C10.389 17.0411 10.654 17.0731 10.881 17.0921C11.108 17.1171 11.311 17.1491 11.335 17.1681C11.361 17.1801 11.809 17.2051 12.333 17.2241C13.267 17.2501 13.437 17.2311 13.633 17.0351C13.759 16.9021 14.018 16.4041 14.131 16.0501C14.34 15.4071 14.548 15.1291 14.497 15.5581C14.384 16.5241 14.175 17.2501 13.784 17.9691C13.525 18.4681 13.121 19.0611 12.85 19.3641C12.528 19.7111 12.535 19.7241 12.938 19.6791C13.557 19.6161 14.409 19.2821 15.034 18.8591C15.861 18.2971 16.681 17.1681 17.224 15.8291C17.331 15.5591 17.444 15.6091 17.407 15.9121C17.394 16.0061 17.369 16.2271 17.35 16.4101L17.319 16.7381L17.672 16.5361C18.505 16.0561 19.086 15.2741 19.799 13.6521C20.026 13.1341 20.676 10.7301 20.872 9.6761C20.9429 9.32399 21.0333 8.97612 21.143 8.6341C21.27 8.2051 21.339 8.0791 21.623 7.7761C21.806 7.5861 22.248 7.2211 22.601 6.9681C23.321 6.4631 23.554 6.2181 23.788 5.7631C23.996 5.3461 24.072 4.6331 23.92 4.4061C23.788 4.2041 23.636 4.2101 23.157 4.4121Z"
            fill="#ffffff"/>
</svg>
