<svg width="24" height="24" viewBox="0 0 24 24" fill="none" xmlns="http://www.w3.org/2000/svg">
    <g>
        <path
                d="M16.412 4.41211H7.592C5.57954 4.41105 3.64908 5.20948 2.2253 6.63176C0.801527 8.05403 0.00106192 9.98365 1.05582e-06 11.9961C-0.00105981 14.0086 0.797371 15.939 2.21965 17.3628C3.64192 18.7866 5.57154 19.587 7.584 19.5881H16.412C18.4245 19.5881 20.3545 18.7887 21.7775 17.3656C23.2006 15.9426 24 14.0126 24 12.0001C24 9.98765 23.2006 8.05761 21.7775 6.63458C20.3545 5.21156 18.4245 4.41211 16.412 4.41211ZM16.219 16.9141H7.786C6.49989 16.8882 5.27522 16.359 4.37484 15.4403C3.47446 14.5216 2.97014 13.2865 2.97014 12.0001C2.97014 10.7137 3.47446 9.47864 4.37484 8.55991C5.27522 7.64118 6.49989 7.11206 7.786 7.08611H16.219C17.5223 7.08611 18.7722 7.60383 19.6937 8.52539C20.6153 9.44694 21.133 10.6968 21.133 12.0001C21.133 13.3034 20.6153 14.5533 19.6937 15.4748C18.7722 16.3964 17.5223 16.9141 16.219 16.9141Z"
                fill="#ffffff"/>
    </g>
    <defs>
        <clipPath id="clip0_101_1853">
            <rect width="24" height="24" fill="white"/>
        </clipPath>
    </defs>
</svg>
