<svg width="24" height="24" viewBox="0 0 24 24" fill="none" xmlns="http://www.w3.org/2000/svg">
    <path d="M10.5 2.66089L11.04 3.65789L9.243 4.30189L11.652 4.51989L12.4 5.76589L12.867 4.64489L14.944 4.43689L13.334 3.82389L13.76 2.80689L12.182 3.32589L10.5 2.66089ZM17.405 4.73789L13.76 6.18189L17.052 7.47989L17.405 7.33389L20.698 6.03589L17.405 4.73789ZM6.895 5.04989C6.10775 5.04989 5.35271 5.17123 4.7958 5.38724C4.23889 5.60325 3.92568 5.89627 3.925 6.20189C3.925 6.50768 4.23791 6.80095 4.79489 7.01718C5.35188 7.23341 6.10731 7.35489 6.895 7.35489C7.68269 7.35489 8.43812 7.23341 8.99511 7.01718C9.55209 6.80095 9.865 6.50768 9.865 6.20189C9.86432 5.89627 9.55111 5.60325 8.9942 5.38724C8.43729 5.17123 7.68225 5.04989 6.895 5.04989ZM24 6.80489C24 6.80489 15.017 11.0829 13.605 11.7579C12.379 12.3189 11.704 12.3189 10.344 11.8519C8.318 11.0219 0 7.24089 0 7.24089V8.27889C0 8.51889 0.332 8.77789 0.966 9.07889C2.243 9.69189 9.306 12.7559 10.416 13.2849C11.528 13.8149 12.316 13.8249 13.729 13.0879C15.141 12.3499 21.778 9.18289 23.055 8.51789C23.709 8.17589 24 7.91589 24 7.67789V6.80489ZM13.958 7.40689L8.39 8.25989L12.274 9.86989L13.958 7.40689ZM24 10.6369C24 10.6369 15.017 14.9159 13.605 15.5909C12.379 16.1509 11.704 16.1509 10.344 15.6839C8.318 14.8539 0 11.0739 0 11.0739V12.1119C0 12.3499 0.332 12.6099 0.966 12.9119C2.243 13.5239 9.306 16.5879 10.416 17.1169C11.528 17.6469 12.316 17.6569 13.729 16.9199C15.141 16.1829 21.778 13.0149 23.055 12.3499C23.709 12.0179 24 11.7479 24 11.5099V10.6369ZM24 14.4789L13.605 19.4329C12.379 19.9929 11.704 19.9929 10.344 19.5269C8.318 18.6959 0 14.9159 0 14.9159V15.9539C0 16.1929 0.332 16.4529 0.966 16.7539C2.243 17.3669 9.306 20.4299 10.416 20.9599C11.528 21.4899 12.316 21.4999 13.729 20.7619C15.141 20.0249 21.778 16.8579 23.055 16.1929C23.709 15.8499 24 15.5799 24 15.3519V14.4789Z" fill="#ffffff"/>
</svg>
