<svg width="24" height="24" viewBox="0 0 24 24" fill="none" xmlns="http://www.w3.org/2000/svg">
    <g>
        <path
                d="M1.72702 0C0.78202 0 0.0200195 0.761 0.0200195 1.707V22.293C0.0200195 23.24 0.78202 24 1.72702 24H22.273C23.218 24 23.98 23.239 23.98 22.293V1.707C23.98 0.76 23.218 0 22.273 0H1.72702ZM20.441 3.273C18.58 6.967 17.141 10.9 14.767 14.319C13.703 15.893 12.438 17.482 10.607 18.179C9.29702 18.731 7.67102 18.516 6.62702 17.532C5.99902 17.009 6.08702 16.102 6.45402 15.457C7.41402 14.233 8.79402 13.437 10.044 12.542C13.886 9.917 17.49 6.889 20.441 3.273ZM18.748 4.523C16.245 7.274 13.367 9.683 10.296 11.792L10.293 11.794L10.29 11.797C8.96302 12.776 7.45502 13.621 6.29702 14.911C5.94802 15.244 5.71402 15.953 5.76002 16.392C5.13802 15.349 4.96002 13.778 5.50302 12.652C6.02902 11.462 7.24502 10.845 8.37902 10.36C12.136 9.007 15.074 7.434 18.748 4.524V4.523Z"
                fill="#ffffff"/>
    </g>
    <defs>
        <clipPath id="clip0_101_1865">
            <rect width="24" height="24" fill="white"/>
        </clipPath>
    </defs>
</svg>
