<svg width="24" height="24" viewBox="0 0 24 24" fill="none" xmlns="http://www.w3.org/2000/svg">
    <g>
        <path
                d="M23.15 2.58696L18.21 0.209962C17.9308 0.0755188 17.6167 0.0312079 17.3112 0.0831658C17.0058 0.135124 16.724 0.280779 16.505 0.499962L7.04498 9.12996L2.92498 6.00196C2.7391 5.86098 2.50974 5.78949 2.27668 5.7999C2.04361 5.81031 1.82154 5.90196 1.64898 6.05896L0.326978 7.26096C0.223958 7.35461 0.141629 7.46874 0.0852608 7.59604C0.0288928 7.72335 -0.000271849 7.86102 -0.000365982 8.00024C-0.000460116 8.13947 0.0285184 8.27718 0.0847142 8.40455C0.14091 8.53193 0.223085 8.64617 0.325978 8.73996L3.89898 12L0.325978 15.26C0.223085 15.3538 0.14091 15.468 0.0847142 15.5954C0.0285184 15.7227 -0.000460116 15.8605 -0.000365982 15.9997C-0.000271849 16.1389 0.0288928 16.2766 0.0852608 16.4039C0.141629 16.5312 0.223958 16.6453 0.326978 16.739L1.64998 17.94C1.82254 18.097 2.04461 18.1886 2.27768 18.199C2.51074 18.2094 2.7401 18.1379 2.92598 17.997L7.04598 14.869L16.506 23.499C16.7248 23.7182 17.0064 23.8639 17.3117 23.9159C17.617 23.9678 17.931 23.9235 18.21 23.789L23.152 21.412C23.4062 21.2892 23.6207 21.0973 23.7707 20.8581C23.9207 20.6189 24.0002 20.3423 24 20.06V3.93896C24 3.65643 23.9202 3.37963 23.7699 3.14044C23.6195 2.90125 23.4046 2.70939 23.15 2.58696ZM18.004 17.448L10.826 12L18.004 6.55196V17.448Z"
                fill="#ffffff"/>
    </g>
    <defs>
        <clipPath id="clip0_97_1846">
            <rect width="24" height="24" fill="white"/>
        </clipPath>
    </defs>
</svg>