<svg width="24" height="24" viewBox="0 0 24 24" fill="none" xmlns="http://www.w3.org/2000/svg">
    <path
            d="M23.5458 10.9303L13.0668 0.45225C12.4628 -0.15075 11.4848 -0.15075 10.8788 0.45225L8.7078 2.62725L11.4678 5.38725C12.1128 5.17225 12.8468 5.31725 13.3568 5.82825C13.8728 6.34325 14.0148 7.08625 13.7948 7.72825L16.4528 10.3882C17.0978 10.1652 17.8398 10.3102 18.3528 10.8232C19.0738 11.5433 19.0738 12.7072 18.3528 13.4272C17.6338 14.1462 16.4718 14.1462 15.7528 13.4272C15.2138 12.8862 15.0788 12.0903 15.3488 11.4312L12.8598 8.95525V15.4802C13.0358 15.5662 13.2018 15.6832 13.3478 15.8282C14.0608 16.5492 14.0608 17.7112 13.3478 18.4282C12.6288 19.1493 11.4588 19.1493 10.7388 18.4282C10.0198 17.7092 10.0198 16.5492 10.7388 15.8302C10.9208 15.6502 11.1258 15.5142 11.3438 15.4242V8.83525C11.1268 8.74425 10.9198 8.61325 10.7438 8.43425C10.1988 7.88925 10.0678 7.09225 10.3478 6.42525L7.6358 3.70025L0.4498 10.8812C-0.1502 11.4862 -0.1502 12.4652 0.4498 13.0702L10.9298 23.5473C11.5338 24.1513 12.5118 24.1513 13.1158 23.5473L23.5458 13.1172C24.1508 12.5142 24.1508 11.5353 23.5458 10.9303Z"
            fill="#ffffff"/>
</svg>