<svg width="24" height="24" viewBox="0 0 24 24" fill="none" xmlns="http://www.w3.org/2000/svg">
    <g>
        <path
                d="M21.8537 1.41572C21.5204 2.21506 21.0891 2.96988 20.5697 3.66282C19.4573 2.51262 18.1256 1.59718 16.6533 0.97065C15.181 0.344119 13.598 0.0192216 11.9979 0.015175C10.3978 0.0111284 8.81319 0.328015 7.33772 0.947091C5.86226 1.56617 4.52593 2.47486 3.40779 3.61941C2.28964 4.76397 1.41239 6.12115 0.827925 7.61066C0.243459 9.10017 -0.0363521 10.6918 0.00504312 12.2913C0.0464384 13.8909 0.408199 15.4659 1.06893 16.9232C1.72965 18.3804 2.67593 19.6904 3.85178 20.7756L4.29628 21.1707C5.98305 22.5933 8.03064 23.5212 10.2123 23.8518C12.3939 24.1824 14.6245 23.9027 16.657 23.0437C18.6895 22.1847 20.4446 20.7799 21.7279 18.9849C23.0112 17.1899 23.7726 15.0747 23.9279 12.8736C24.2736 9.86102 23.36 6.00882 21.8537 1.41572ZM5.58048 20.8744C5.45351 21.0304 5.28315 21.1453 5.09091 21.2045C4.89867 21.2638 4.69319 21.2647 4.50043 21.2072C4.30768 21.1497 4.1363 21.0363 4.00795 20.8814C3.8796 20.7265 3.80005 20.537 3.77935 20.337C3.75865 20.1369 3.79772 19.9351 3.89164 19.7573C3.98555 19.5794 4.13009 19.4333 4.30698 19.3375C4.48388 19.2418 4.68519 19.2006 4.88548 19.2192C5.08578 19.2378 5.27606 19.3154 5.43228 19.4421C5.63709 19.6156 5.76688 19.8615 5.7945 20.1285C5.82212 20.3954 5.74543 20.6627 5.58048 20.8744ZM21.7796 17.2938C18.8411 21.2201 12.5195 19.8866 8.49438 20.0842C8.49438 20.0842 7.77828 20.1336 7.06208 20.2323C7.06208 20.2323 7.33378 20.1089 7.67948 19.9854C10.5193 18.9977 11.8527 18.8001 13.5813 17.9111C16.8162 16.2566 20.0511 12.6267 20.6931 8.87322C19.4584 12.4785 15.705 15.5899 12.2972 16.8493C9.95128 17.7136 5.72868 18.5532 5.72868 18.5532L5.55578 18.4544C2.69128 17.0468 2.59258 10.824 7.82758 8.82382C10.1242 7.93482 12.2972 8.42882 14.7913 7.83612C17.4335 7.21872 20.4956 5.24322 21.7303 2.65042C23.1131 6.82362 24.7923 13.2934 21.7796 17.2938Z"
                fill="#ffffff"/>
    </g>
    <defs>
        <clipPath id="clip0_101_1846">
            <rect width="24" height="24" fill="white"/>
        </clipPath>
    </defs>
</svg>
