<svg width="24" height="24" viewBox="0 0 24 24" fill="none" xmlns="http://www.w3.org/2000/svg">
    <g>
        <path
                d="M1.52502 5.86992C-0.600979 8.92392 -0.336979 12.8959 1.28802 16.1389C1.32502 16.2179 1.36602 16.2929 1.40602 16.3679C1.42902 16.4199 1.45502 16.4679 1.48302 16.5179C1.49602 16.5449 1.51402 16.5739 1.53002 16.5999C1.55602 16.6519 1.58402 16.7019 1.61102 16.7519L1.76802 17.0179C1.79802 17.0669 1.82502 17.1149 1.85802 17.1639C1.91402 17.2579 1.97802 17.3509 2.03602 17.4449C2.06202 17.4849 2.08602 17.5229 2.11502 17.5619C2.21199 17.7146 2.31542 17.8631 2.42502 18.0069C2.50302 18.1139 2.58102 18.2179 2.66502 18.3219C2.69202 18.3599 2.72302 18.3979 2.75102 18.4369L2.97102 18.7059C2.99902 18.7359 3.02602 18.7729 3.05502 18.8049C3.15302 18.9229 3.25702 19.0379 3.36102 19.1549L3.36602 19.1609C3.493 19.3211 3.63534 19.4685 3.79102 19.6009C3.87102 19.6839 3.95102 19.7659 4.03602 19.8459L4.13702 19.9429C4.24802 20.0479 4.36002 20.1519 4.47702 20.2519C4.47902 20.2519 4.48002 20.2539 4.48202 20.2549L4.53902 20.3049C4.64102 20.3939 4.74402 20.4829 4.84902 20.5649L4.97402 20.6699C5.05902 20.7379 5.14802 20.8029 5.23402 20.8699L5.37102 20.9749C5.46402 21.0449 5.56302 21.1139 5.65802 21.1819C5.69302 21.2069 5.72802 21.2319 5.76402 21.2549L5.79402 21.2779L6.07402 21.4629L6.19402 21.5429C6.34202 21.6369 6.48802 21.7269 6.63402 21.8149C6.67502 21.8349 6.71802 21.8589 6.75702 21.8829C6.86502 21.9449 6.97702 22.0079 7.08602 22.0659C7.14602 22.0999 7.20802 22.1289 7.27002 22.1599C7.34502 22.2019 7.42302 22.2429 7.50402 22.2849C7.52336 22.2908 7.54211 22.2985 7.56002 22.3079C7.59302 22.3229 7.62402 22.3389 7.65602 22.3549C7.77602 22.4149 7.90102 22.4729 8.03102 22.5299C8.05502 22.5399 8.08102 22.5499 8.10702 22.5639C8.25102 22.6269 8.39602 22.6869 8.54502 22.7459C8.57902 22.7559 8.61502 22.7729 8.65002 22.7859C8.78502 22.8369 8.92402 22.8889 9.06102 22.9379L9.11102 22.9559C9.26502 23.0079 9.41602 23.0579 9.57102 23.1059C9.60702 23.1159 9.64402 23.1289 9.68202 23.1389C9.84202 23.1869 9.99602 23.2439 10.156 23.2759C20.429 25.1479 23.414 17.0989 23.414 17.0989C20.906 20.3649 16.456 21.2259 12.24 20.2679C12.084 20.2319 11.928 20.1819 11.77 20.1359C11.5797 20.0794 11.3907 20.0187 11.203 19.9539L11.141 19.9299C11.005 19.8839 10.874 19.8329 10.741 19.7819C10.7048 19.7673 10.6682 19.7539 10.631 19.7419C10.483 19.6819 10.341 19.6209 10.198 19.5579C10.167 19.5479 10.141 19.5339 10.11 19.5219C9.98887 19.4663 9.8682 19.4096 9.74802 19.3519C9.71201 19.336 9.67665 19.3186 9.64202 19.2999C9.54802 19.2559 9.45402 19.2049 9.36202 19.1569C9.29885 19.1266 9.23649 19.0946 9.17502 19.0609C9.06102 19.0009 8.94802 18.9359 8.83502 18.8739C8.80102 18.8499 8.76202 18.8299 8.72302 18.8079C8.57524 18.7203 8.42889 18.6303 8.28402 18.5379C8.24383 18.5132 8.20447 18.4872 8.16602 18.4599C8.0599 18.3942 7.95585 18.3251 7.85402 18.2529C7.81902 18.2299 7.78702 18.2049 7.75102 18.1799C7.65135 18.1111 7.553 18.0404 7.45602 17.9679C7.41402 17.9339 7.36902 17.9019 7.32402 17.8679C7.23602 17.7979 7.14702 17.7329 7.05902 17.6599L6.94102 17.5649C6.82744 17.4739 6.71575 17.3805 6.60602 17.2849C6.59468 17.2735 6.5823 17.2631 6.56902 17.2539L6.22202 16.9379L6.12202 16.8439C6.04002 16.7599 5.95602 16.6799 5.87202 16.5979L5.77402 16.4979C5.66839 16.3928 5.56536 16.2851 5.46502 16.1749L5.45002 16.1589C5.34402 16.0429 5.24002 15.9239 5.13702 15.8039C5.11002 15.7739 5.08402 15.7399 5.05702 15.7069L4.83002 15.4299C4.71471 15.2818 4.60137 15.1321 4.49002 14.9809C2.15202 11.7899 1.30602 7.38392 3.17702 3.77092M8.12002 3.29792C6.58002 5.50892 6.66602 8.46692 7.86602 10.8059C8.06432 11.1995 8.29092 11.5781 8.54402 11.9389C8.77402 12.2689 9.02802 12.6599 9.33702 12.9269C9.44402 13.0489 9.56002 13.1669 9.68102 13.2869L9.77102 13.3769C9.88502 13.4869 10.003 13.5939 10.121 13.7019L10.137 13.7149C10.2719 13.8327 10.4099 13.9467 10.551 14.0569C10.585 14.0799 10.614 14.1069 10.647 14.1299C10.787 14.2379 10.929 14.3419 11.075 14.4459L11.09 14.4549C11.152 14.4999 11.218 14.5409 11.288 14.5849C11.316 14.6029 11.348 14.6269 11.378 14.6449C11.484 14.7129 11.588 14.7769 11.696 14.8419C11.713 14.8489 11.728 14.8579 11.744 14.8649C11.834 14.9199 11.932 14.9729 12.026 15.0219C12.059 15.0419 12.091 15.0569 12.126 15.0759C12.192 15.1089 12.258 15.1439 12.323 15.1779L12.355 15.1919C12.49 15.2589 12.628 15.3209 12.763 15.3819C12.797 15.3959 12.826 15.4069 12.855 15.4209C12.966 15.4689 13.079 15.5149 13.191 15.5579C13.241 15.5749 13.288 15.5949 13.335 15.6099C13.437 15.6479 13.545 15.6829 13.645 15.7179L13.785 15.7629C13.932 15.8079 14.08 15.8669 14.234 15.8929C22.164 17.2059 24 11.0979 24 11.0979C22.347 13.4779 19.148 14.6109 15.739 13.7259C15.5881 13.6869 15.4384 13.6436 15.29 13.5959C15.242 13.5819 15.2 13.5669 15.154 13.5529C15.05 13.5169 14.943 13.4829 14.842 13.4439L14.698 13.3899C14.585 13.3449 14.471 13.3029 14.362 13.2549C14.328 13.2399 14.297 13.2299 14.271 13.2149C14.131 13.1519 13.99 13.0899 13.853 13.0229L13.647 12.9159L13.528 12.8559C13.4384 12.8083 13.35 12.7583 13.263 12.7059C13.2417 12.6954 13.221 12.6838 13.201 12.6709C13.095 12.6049 12.984 12.5409 12.883 12.4729C12.849 12.4539 12.818 12.4309 12.786 12.4109L12.578 12.2749C12.434 12.1749 12.293 12.0669 12.15 11.9619C12.118 11.9329 12.087 11.9089 12.056 11.8829C10.557 10.7049 9.37502 9.09292 8.81402 7.26992C8.22402 5.37292 8.35402 3.24692 9.37402 1.51992M13.666 1.37292C12.757 2.70692 12.67 4.36292 13.296 5.83292C13.961 7.39592 15.32 8.62292 16.904 9.20292C16.969 9.22792 17.032 9.24892 17.1 9.27292L17.188 9.29992C17.28 9.32992 17.373 9.36292 17.468 9.38392C21.849 10.2289 23.035 7.13392 23.354 6.67992C22.311 8.17792 20.562 8.53692 18.416 8.01492C18.2412 7.97121 18.0689 7.9178 17.9 7.85492C17.6897 7.78115 17.4834 7.69637 17.282 7.60092C16.9008 7.41652 16.5384 7.19548 16.2 6.94092C14.278 5.48392 13.087 2.70492 14.341 0.440918"
                fill="#ffffff"/>
    </g>
    <defs>
        <clipPath id="clip0_99_1879">
            <rect width="24" height="24" fill="white"/>
        </clipPath>
    </defs>
</svg>