<svg width="24" height="24" viewBox="0 0 24 24" fill="none" xmlns="http://www.w3.org/2000/svg">
    <ellipse cx="21.2289" cy="9.61053" rx="0.989691" ry="1.06195" fill="#ffffff"/>
    <ellipse cx="19.9422" cy="6.79656" rx="1.08866" ry="1.16814" fill="#ffffff"/>
    <ellipse cx="17.8144" cy="4.0353" rx="1.48454" ry="1.59292" fill="#ffffff"/>
    <ellipse cx="13.9051" cy="2.17699" rx="2.02887" ry="2.17699" fill="#ffffff"/>
    <ellipse cx="8.75888" cy="2.76096" rx="2.32577" ry="2.49558" fill="#ffffff"/>
    <ellipse cx="4.18149" cy="6.61062" rx="2.4" ry="2.57522" fill="#ffffff"/>
    <ellipse cx="2.35052" cy="12.7699" rx="2.35052" ry="2.52212" fill="#ffffff"/>
    <ellipse cx="4.05775" cy="18.7965" rx="1.97938" ry="2.12389" fill="#ffffff"/>
    <ellipse cx="7.52157" cy="21.5044" rx="1.53402" ry="1.64602" fill="#ffffff"/>
    <ellipse cx="10.9609" cy="22.8584" rx="1.06392" ry="1.14159" fill="#ffffff"/>
    <ellipse cx="14.2268" cy="22.4336" rx="0.865979" ry="0.929204" fill="#ffffff"/>
    <path
            d="M15.3681 16.6094C15.0476 16.8816 14.6425 17.0442 14.2019 17.0442C13.1634 17.0442 12.3215 16.1408 12.3215 15.0265C12.3215 13.9121 13.1634 13.0088 14.2019 13.0088C15.2405 13.0088 16.0824 13.9121 16.0824 15.0265C16.0824 15.2054 16.0607 15.3788 16.0199 15.544L16.8725 16.1613C17.6165 15.2386 18.7159 14.6548 19.9423 14.6548C22.1833 14.6548 24 16.6042 24 19.0088C24 21.4134 22.1833 23.3628 19.9423 23.3628C17.7012 23.3628 15.8845 21.4134 15.8845 19.0088C15.8845 18.3778 16.0096 17.7781 16.2347 17.2368L15.3681 16.6094Z"
            fill="#ffffff"/>
    <ellipse cx="21.4268" cy="12.2656" rx="0.791753" ry="0.849558" fill="#ffffff"/>
</svg>
