<svg width="24" height="24" viewBox="0 0 24 24" fill="none" xmlns="http://www.w3.org/2000/svg">
    <path
            d="M16.7147 6.11171L11.9543 10.8721L11.9412 10.8851C11.4056 11.4206 11.4056 12.289 11.9412 12.8246C12.4767 13.3601 13.345 13.3601 13.8805 12.8247L13.8806 12.8248L18.5129 8.19254C19.1676 9.31007 19.5429 10.6112 19.5429 11.9999C19.5429 16.1657 16.1658 19.5427 12 19.5427C7.83421 19.5427 4.45715 16.1657 4.45715 11.9999C4.45715 7.83408 7.83421 4.45703 12 4.45703C13.784 4.45703 15.4233 5.07635 16.7147 6.11171Z"
            fill="#ffffff"/>
    <circle cx="12" cy="1.37143" r="1.37143" fill="#ffffff"/>
    <circle cx="12" cy="22.6288" r="1.37143" fill="#ffffff"/>
    <circle cx="19.5157" cy="4.48441" r="1.37143" transform="rotate(45 19.5157 4.48441)" fill="#EF7A39"/>
    <circle cx="4.4845" cy="19.5157" r="1.37143" transform="rotate(45 4.4845 19.5157)" fill="#ffffff"/>
    <circle cx="22.6287" cy="12.0001" r="1.37143" transform="rotate(90 22.6287 12.0001)" fill="#ffffff"/>
    <circle cx="1.37131" cy="11.9998" r="1.37143" transform="rotate(90 1.37131 11.9998)" fill="#ffffff"/>
    <circle cx="19.5157" cy="19.5156" r="1.37143" transform="rotate(135 19.5157 19.5156)" fill="#ffffff"/>
    <circle cx="4.4844" cy="4.48438" r="1.37143" transform="rotate(135 4.4844 4.48438)" fill="#ffffff"/>
</svg>
